<?xml version="1.0" standalone="no"?><!DOCTYPE svg PUBLIC "-//W3C//DTD SVG 1.1//EN" "http://www.w3.org/Graphics/SVG/1.1/DTD/svg11.dtd"><svg t="1569677355471" class="icon" viewBox="0 0 1024 1024" version="1.1" xmlns="http://www.w3.org/2000/svg" p-id="34222" xmlns:xlink="http://www.w3.org/1999/xlink" width="300" height="300"><defs><style type="text/css"></style></defs><path d="M431.601371 405.942857c-62.171429 21.942857-109.714286 87.771429-98.742857 164.571429 7.314286 54.857143 47.542857 102.4 98.742857 120.685714 84.114286 25.6 160.914286-18.285714 190.171429-91.428571 3.657143-10.971429 14.628571-21.942857 29.257143-21.942858 29.257143-3.657143 51.2 21.942857 40.228571 51.2-32.914286 91.428571-128 153.6-230.4 146.285715-138.971429-10.971429-237.714286-142.628571-197.485714-281.6 18.285714-69.485714 73.142857-128 142.628571-153.6 18.285714-7.314286 36.571429 0 43.885715 18.285714 10.971429 14.628571 0 36.571429-18.285715 47.542857" fill="#337ab7" p-id="34223"></path><path d="M903.3728 490.057143c-14.628571 3.657143-21.942857 18.285714-21.942857 32.914286v25.6c0 230.4-190.171429 416.914286-424.228572 405.942857-208.457143-7.314286-384-182.857143-391.314285-391.314286C58.5728 332.8 245.087086 142.628571 475.487086 142.628571c18.285714 0 32.914286 0 47.542857 3.657143s29.257143-7.314286 36.571428-21.942857c7.314286-21.942857-3.657143-43.885714-25.6-47.542857-47.542857-7.314286-95.085714-3.657143-146.285714 7.314286C164.629943 128-3.598629 325.485714 0.058514 552.228571 3.715657 811.885714 215.829943 1024 475.487086 1024c263.314286 0 475.428571-212.114286 475.428571-475.428571v-32.914286c-3.657143-21.942857-25.6-36.571429-47.542857-25.6z" fill="#337ab7" p-id="34224"></path><path d="M658.344229 0c-14.628571 0-29.257143 7.314286-32.914286 21.942857L464.515657 512c-10.971429 25.6 10.971429 51.2 32.914286 51.2 3.657143 0 7.314286 0 14.628571-3.657143l486.4-117.028571c32.914286-14.628571 29.257143-58.514286-3.657143-69.485715L768.058514 321.828571c-14.628571-3.657143-21.942857-14.628571-25.6-25.6L694.915657 29.257143c-7.314286-18.285714-21.942857-29.257143-36.571428-29.257143m-7.314286 182.857143l25.6 128v7.314286c10.971429 40.228571 40.228571 69.485714 76.8 80.457142l69.485714 14.628572-266.971428 62.171428 95.085714-292.571428" fill="#337ab7" p-id="34225"></path></svg>