<?xml version="1.0" standalone="no"?><!DOCTYPE svg PUBLIC "-//W3C//DTD SVG 1.1//EN" "http://www.w3.org/Graphics/SVG/1.1/DTD/svg11.dtd"><svg t="1569648480103" class="icon" viewBox="0 0 1024 1024" version="1.1" xmlns="http://www.w3.org/2000/svg" p-id="2509" xmlns:xlink="http://www.w3.org/1999/xlink" width="300" height="300"><defs><style type="text/css"></style></defs><path d="M733.781333 432.64h-64.426666C664.234667 245.12 599.168 0 486.442667 0 436.224 0 367.36 37.76 323.498667 216.32a46.933333 46.933333 0 0 0 13.269333 45.226667c12.245333 11.648 29.781333 15.914667 46.08 11.221333 16.213333-4.693333 28.757333-17.706667 32.768-34.048 25.770667-105.6 57.941333-138.24 68.266667-143.36 26.410667 21.76 86.954667 160.64 90.794666 339.84h-80.469333a15.274667 15.274667 0 1 0-10.325333 26.24l123.008 114.56a15.530667 15.530667 0 0 0 21.888 0l116.565333-119.68a15.274667 15.274667 0 0 0-11.562667-23.68zM486.4 1024c-40.533333 0-99.84-26.24-143.616-151.68-8.533333-24.576 4.608-51.370667 29.312-59.818667a47.445333 47.445333 0 0 1 60.202667 29.098667c25.770667 72.96 50.261333 88.32 54.101333 88.32 3.84 0 43.178667-27.52 72.149333-149.76a47.36 47.36 0 0 1 92.117334 21.76C615.893333 947.2 559.232 1024 486.4 1024z" p-id="2510" fill="#ffffff"></path><path d="M806.570667 342.826667c-25.856-6.741333-51.925333 10.112-58.24 37.674666-6.357333 27.605333 9.472 55.424 35.328 62.165334 118.528 31.402667 145.365333 69.802667 145.365333 76.074666 0 27.946667-146.645333 110.336-427.52 110.336-46.506667 0-91.733333 0-135.552-7.68l4.565333-83.797333a16.896 16.896 0 0 0-9.386666-16.085333 15.018667 15.018667 0 0 0-17.493334 3.498666l-125.696 124.288a17.322667 17.322667 0 0 0-4.608 11.861334c0 4.48 1.664 8.746667 4.608 11.904l116.565334 131.925333a15.061333 15.061333 0 0 0 17.365333 4.565333 16.768 16.768 0 0 0 10.112-15.744V724.053333c45.226667 4.181333 91.050667 7.68 138.154667 7.68C752.256 731.690667 1024 665.344 1024 522.24c1.28-57.258667-36.693333-131.242667-217.386667-179.413333zM143.445333 639.914667a43.093333 43.093333 0 0 1-19.797333-3.328C22.272 592.298667 0 535.466667 0 497.066667c0-132.266667 226.901333-187.733333 421.674667-198.357334 25.088-1.28 46.421333 19.456 47.616 46.293334 1.194667 26.88-18.176 49.621333-43.306667 50.901333-234.325333 12.586667-335.104 80.64-335.104 101.162667 0 0 11.776 25.173333 69.248 48.938666 21.290667 7.765333 33.962667 31.104 29.738667 54.698667-4.181333 23.594667-23.978667 40.32-46.421334 39.210667z" p-id="2511" fill="#ffffff"></path></svg>